<svg xmlns="http://www.w3.org/2000/svg" viewBox="0 0 512 512" style="enable-background:new 0 0 512 512" xml:space="preserve"><path style="fill:#fff082" d="M337.214 342.436c56.856-29.425 95.718-88.771 95.718-157.208 0-100.878-84.421-182.036-186.468-176.681C154.94 13.35 80.931 89.983 79.104 181.615c-1.397 70.026 37.908 131.002 95.857 160.911 17.35 8.955 27.959 27.143 27.959 46.668v70.28c0 9.772 7.921 17.693 17.693 17.693h70.773c9.772 0 17.693-7.921 17.693-17.693v-70.239c0-19.606 10.721-37.788 28.135-46.799z"/><circle style="fill:#ffa" cx="255.999" cy="185.226" r="141.546"/><circle style="fill:#ffffe5" cx="255.999" cy="185.226" r="88.466"/><path style="fill:#7f8499" d="M229.46 477.166c0 14.658 11.882 26.54 26.54 26.54s26.54-11.882 26.54-26.54v-8.847h-53.08v8.847z"/><path style="fill:#afb9d2" d="M291.386 477.166h-70.773c-9.772 0-17.693-7.921-17.693-17.693v-53.08h106.159v53.08c0 9.772-7.922 17.693-17.693 17.693z"/><path style="fill:#ffdc64" d="M238.307 406.393v-12.39a35.387 35.387 0 0 0-21.014-32.337l-40.36-17.939c16.137 9.292 25.988 26.718 25.988 45.465v17.2l35.386.001z"/><path style="fill:#959cb5" d="M309.079 450.074v-16.587h-70.773v-27.093H202.92v53.08c0 9.771 7.922 17.693 17.693 17.693H256c-9.771 0-17.693-7.922-17.693-17.693v-9.4h70.772z"/><path d="M383.476 50.846C346.258 15.53 297.446-2.433 246.03.265c-46.355 2.432-89.983 22.495-122.845 56.491-32.847 33.981-51.446 78.265-52.373 124.693-.706 35.378 8.59 69.95 26.883 99.979a185.785 185.785 0 0 0 73.463 68.466c14.475 7.473 23.469 22.531 23.469 39.299v70.28c0 14.329 11.658 25.987 25.987 25.987h1.558C225.902 500.675 239.65 512 256 512s30.096-11.325 33.828-26.54h1.558c14.329 0 25.987-11.658 25.987-25.987v-70.239c0-16.773 9.063-31.882 23.653-39.433 61.806-31.988 100.2-95.048 100.2-164.574 0-51.319-20.509-99.043-57.75-134.381zM256 495.412c-7.073 0-13.205-4.054-16.231-9.952h32.464c-3.029 5.9-9.16 9.952-16.233 9.952zm35.386-26.539h-70.773c-5.183 0-9.4-4.216-9.4-9.4v-9.4H256c4.58 0 8.294-3.712 8.294-8.294s-3.713-8.294-8.294-8.294h-44.786v-18.799h89.572v18.799h-9.4c-4.58 0-8.294 3.712-8.294 8.294s3.713 8.294 8.294 8.294h9.4v9.4c0 5.183-4.217 9.4-9.4 9.4zm42.016-133.803c-20.118 10.412-32.616 31.168-32.616 54.164v8.865h-89.572v-8.906c0-23.001-12.434-43.707-32.448-54.038a169.195 169.195 0 0 1-66.905-62.355c-16.648-27.329-25.108-58.803-24.465-91.021.843-42.228 17.787-82.536 47.715-113.497 29.936-30.97 69.636-49.242 111.788-51.455 3.075-.161 6.137-.241 9.189-.241 43.427 0 84.312 16.25 115.97 46.291 33.907 32.174 52.58 75.625 52.58 122.35 0 63.302-34.959 120.717-91.236 149.843z"/><path d="M285.163 97.741c-4.345-1.444-9.042.9-10.491 5.245l-53.08 159.239a8.293 8.293 0 0 0 5.246 10.491c.87.29 1.754.428 2.624.428a8.297 8.297 0 0 0 7.867-5.673l53.08-159.239a8.297 8.297 0 0 0-5.246-10.491zM199.938 126.284a8.294 8.294 0 0 0-11.728 0l-53.08 53.08a8.295 8.295 0 0 0 0 11.73l53.08 53.08c1.619 1.619 3.742 2.428 5.864 2.428s4.245-.809 5.864-2.428a8.295 8.295 0 0 0 0-11.73l-47.215-47.214 47.215-47.214a8.297 8.297 0 0 0 0-11.732zM376.87 179.364l-53.08-53.08a8.294 8.294 0 0 0-11.728 11.73l47.215 47.214-47.215 47.214a8.295 8.295 0 0 0 11.728 11.73l53.08-53.08a8.292 8.292 0 0 0 0-11.728z"/></svg>